
<svg width="273px" height="480px" viewBox="0 0 273 480" version="1.1" xmlns="http://www.w3.org/2000/svg" xmlns:xlink="http://www.w3.org/1999/xlink">
    <g id="Page-1" stroke="none" stroke-width="1" fill="none" fill-rule="evenodd">
        <g id="Desktop" transform="translate(-397.000000, -260.000000)" fill="#000000" stroke="#000000">
            <path d="M563.944697,408.770714 L605.671324,366.156286 L502.426407,260.714669 L501.685552,261.471287 L500.944697,260.714669 L397.69978,366.156286 L439.426407,408.770714 L470.5,377.03598 L470.5,739.5 L529.5,739.5 L529.5,593.226717 L530.088456,593.33249 C534.319967,594.093091 538.635309,594.478723 543,594.478723 L597,594.478723 C637.040644,594.478723 669.5,562.019368 669.5,521.978723 L669.5,496.404255 C669.5,456.363611 637.040644,423.904255 597,423.904255 L543,423.904255 C538.635309,423.904255 534.319967,424.289888 530.088456,425.050489 L529.5,425.156262 L529.5,373.593151 L563.944697,408.770714 Z M561,463.5 L587,463.5 C609.919817,463.5 628.5,482.080183 628.5,505 C628.5,527.919817 609.919817,546.5 587,546.5 L561,546.5 C538.080183,546.5 519.5,527.919817 519.5,505 C519.5,482.080183 538.080183,463.5 561,463.5 Z" id="Combined-Shape"></path>
        </g>
    </g>
</svg>
