
<svg id="pickup" xmlns="http://www.w3.org/2000/svg" viewBox="0 0 582 1024">
  <title>Pickup icon</title>
  <defs>
      <linearGradient id="gradient1" x1="0%" y1="100%" x2="0%" y2="0%">
        <stop offset="0%" stop-color="black" stop-opacity="1"/>
        <stop offset="100%" stop-color="white" stop-opacity="1"/>
      </linearGradient>
      <linearGradient id="gradient2" x1="0%" y1="100%" x2="0%" y2="0%">
          <stop offset="0%" stop-color="white" stop-opacity="1"/>
          <stop offset="100%" stop-color="black" stop-opacity="1"/>
      </linearGradient>
      <style>
        path {
          animation: ripple 2s linear infinite forwards;
          stroke: black 2px;
          fill: black;
        }

        @keyframes ripple {
          0% {
            fill: url(#gradient1);
            opacity: 1;
          }

          50% {
            fill: black;
          }

          80% {
            fill: url(#gradient2);
            opacity: 1;
          }

          100% {
            fill: white;
            opacity: 0;
          }
        }
      </style>
  </defs>
  <path d="M356.149 317.378l89.017-90.911-220.256-224.942-1.58 1.614-1.58-1.614-220.256 224.942 89.017 90.911 66.29-67.701v773.257h125.867v-312.050l1.255 0.226c9.027 1.623 18.233 2.445 27.545 2.445h115.2c85.42 0 154.667-69.247 154.667-154.667v-54.559c0-85.42-69.247-154.667-154.667-154.667h-115.2c-9.311 0-18.517 0.823-27.545 2.445l-1.255 0.226v-110.001l73.482 75.045zM349.867 434.133h55.467c48.896 0 88.533 39.638 88.533 88.533s-39.638 88.533-88.533 88.533h-55.467c-48.896 0-88.533-39.638-88.533-88.533s39.638-88.533 88.533-88.533z"></path>
</svg>
