
<svg id="pickup" xmlns="http://www.w3.org/2000/svg" viewBox="0 0 582 1024">
  <title>Pickup icon</title>
  <path d="M356.149 317.378l89.017-90.911-220.256-224.942-1.58 1.614-1.58-1.614-220.256 224.942 89.017 90.911 66.29-67.701v773.257h125.867v-312.050l1.255 0.226c9.027 1.623 18.233 2.445 27.545 2.445h115.2c85.42 0 154.667-69.247 154.667-154.667v-54.559c0-85.42-69.247-154.667-154.667-154.667h-115.2c-9.311 0-18.517 0.823-27.545 2.445l-1.255 0.226v-110.001l73.482 75.045zM349.867 434.133h55.467c48.896 0 88.533 39.638 88.533 88.533s-39.638 88.533-88.533 88.533h-55.467c-48.896 0-88.533-39.638-88.533-88.533s39.638-88.533 88.533-88.533z"></path>
</svg>
