
<svg width="281px" height="481px" viewBox="0 0 281 481" version="1.1" xmlns="http://www.w3.org/2000/svg" xmlns:xlink="http://www.w3.org/1999/xlink">
    <g id="Page-1" stroke="none" stroke-width="1" fill="none" fill-rule="evenodd">
        <g id="Desktop" transform="translate(-399.000000, -259.000000)" fill="#000000" stroke="#000000">
            <path d="M566.501836,408.274045 L608.228463,365.659617 L504.983546,260.218 L504.242691,260.974618 L503.501836,260.218 L400.256919,365.659617 L441.983546,408.274045 L473.057139,376.539311 L473.057139,739.003331 L532.057139,739.003331 L532.057139,727.75442 L532.646367,727.861287 C536.913459,728.635198 541.26619,729.027639 545.669122,729.027639 L607,729.027639 C647.040644,729.027639 679.5,696.568283 679.5,656.527639 L679.5,618.503331 C679.5,578.462687 647.040644,546.003331 607,546.003331 L545.630782,546.003331 C541.240912,546.003331 536.900987,546.393426 532.646102,547.162749 L532.057139,547.269239 L532.057139,373.096482 L566.501836,408.274045 Z M504.242691,259.54528 L504.599946,259.910137 L503.885436,259.910137 L504.242691,259.54528 Z M569.796765,688.269842 C542.018629,688.269842 519.5,665.751213 519.5,637.973077 C519.5,610.194941 542.018629,587.676313 569.796765,587.676313 L588.994001,587.676313 C616.489213,587.676313 638.931784,609.672725 639.483821,637.162395 L639.499899,637.963039 C639.506526,638.29305 639.50984,638.62312 639.50984,638.953197 C639.50984,666.190028 617.430026,688.269842 590.193196,688.269842 L569.796765,688.269842 Z" id="Combined-Shape" transform="translate(539.778570, 499.503331) scale(1, -1) translate(-539.778570, -499.503331) "></path>
        </g>
    </g>
</svg>
