
<svg xmlns="http://www.w3.org/2000/svg">

  <symbol id="downstairs" viewBox="0 0 1009 1024">
    <title>Downtairs icon</title>
    <path d="M843.48 381.097h-337.814v-380.041h-504.61v124.569h380.041v380.041h337.814v266.622l-65.607-65.607-88.084 88.084 137.987 137.987-0.75 0.75 88.084 88.084 216.477-216.477-88.084-88.084-75.454 75.454v-411.382z"></path>
  </symbol>

  <symbol id="pickup" viewBox="0 0 582 1024">
      <title>Pickup icon</title>
      <path d="M356.149 317.378l89.017-90.911-220.256-224.942-1.58 1.614-1.58-1.614-220.256 224.942 89.017 90.911 66.29-67.701v773.257h125.867v-312.050l1.255 0.226c9.027 1.623 18.233 2.445 27.545 2.445h115.2c85.42 0 154.667-69.247 154.667-154.667v-54.559c0-85.42-69.247-154.667-154.667-154.667h-115.2c-9.311 0-18.517 0.823-27.545 2.445l-1.255 0.226v-110.001l73.482 75.045zM349.867 434.133h55.467c48.896 0 88.533 39.638 88.533 88.533s-39.638 88.533-88.533 88.533h-55.467c-48.896 0-88.533-39.638-88.533-88.533s39.638-88.533 88.533-88.533z"></path>
    </symbol>

    <symbol id="putdown" viewBox="0 0 598 1024">
      <title>Putdown icon </title>
      <path d="M356.594 706.225l88.832 90.722-219.798 224.474-1.577-1.611-1.577 1.611-219.798-224.474 88.832-90.722 66.153 67.56v-771.649h125.605v23.948l1.254-0.228c9.084-1.648 18.351-2.483 27.724-2.483h130.567c85.242 0 154.345 69.103 154.345 154.345v80.95c0 85.242-69.103 154.345-154.345 154.345h-130.649c-9.346 0-18.585-0.83-27.643-2.468l-1.254-0.227v370.796l73.329-74.889zM224.051 1022.853l0.761-0.777h-1.521l0.761 0.777zM363.609 110.142c-59.137 0-107.077 47.94-107.077 107.077s47.94 107.077 107.077 107.077h40.869c58.535 0 106.312-46.828 107.488-105.351l0.034-1.704c0.014-0.703 0.021-1.405 0.021-2.108 0-57.984-47.006-104.99-104.99-104.99h-43.422z"></path>
    </symbol>

    <symbol id="sit" viewBox="0 0 768 1024">
      <title>Sit icon</title>
  <path d="M615.467 1022.933h151.467v-573.867h-614.4v-448h-151.467v582.4h614.4v439.467z"></path>
  </symbol>

  <symbol id="upstairs" viewBox="0 0 1009 1024">
    <title>Upstairs icon</title>
    <path d="M843.48 641.981h-337.814v380.041h-504.61v-124.569h380.041v-380.041h337.814v-266.622l-65.607 65.607-88.084-88.084 137.987-137.987-0.75-0.75 88.084-88.084 216.477 216.477-88.084 88.084-75.454-75.454v411.382z"></path>
  </symbol>

  </svg>
